<svg width="274" height="632" viewBox="0 0 274 632" fill="none" xmlns="http://www.w3.org/2000/svg">
<rect x="132" y="150.608" width="50" height="50" rx="15" transform="rotate(-33.1504 132 150.608)" fill="white" fill-opacity="0.87"/>
<rect x="102" y="253.127" width="40" height="40" rx="15" transform="rotate(-40.7824 102 253.127)" fill="white" fill-opacity="0.87"/>
<rect x="82.1931" y="334.264" width="30" height="30" rx="15" transform="rotate(-13.1078 82.1931 334.264)" fill="white" fill-opacity="0.87"/>
<rect x="189" y="42.5171" width="60" height="60" rx="15" transform="rotate(-45.1226 189 42.5171)" fill="white" fill-opacity="0.87"/>
<rect y="432" width="200" height="200" rx="45" fill="white"/>
<circle cx="54" cy="490.5" r="20" fill="#2D6E71" fill-opacity="0.87"/>
<circle cx="102" cy="490.5" r="20" fill="#2D6E71" fill-opacity="0.87"/>
<circle cx="150" cy="490.5" r="20" fill="#2D6E71" fill-opacity="0.87"/>
<circle cx="54" cy="570.5" r="20" fill="#2D6E71" fill-opacity="0.87"/>
<path d="M122 570.5C122 581.546 113.046 590.5 102 590.5C90.9543 590.5 82 581.546 82 570.5C82 559.454 90.9543 550.5 102 550.5C113.046 550.5 122 559.454 122 570.5Z" fill="#2D6E71" fill-opacity="0.87"/>
<circle cx="150" cy="570.5" r="20" fill="#2D6E71" fill-opacity="0.87"/>
</svg>
